# xmcd
#
# Track frame offsets:
#	150
#	17622
#	35518
#	54075
#	70936
#	91422
#	107379
#	124625
#	144306
#	157100
#	178906
#	194321
#	210625
#	223148
#	236579
#	249748
#	262151
#	273713
#	300224
#	315094
#
# Disc length: 4413 seconds
#
# Revision: 0
# Processed by: cddbd v1.5.2PL0 Copyright (c) Steve Scherf et al.
# Submitted via: EasyCDDAExtractor 2010.6.0.0
#
DISCID=19113b14
DTITLE=Various Artist - Ultimate Smooth Soul Classics [CD1]
DYEAR=2010
DGENRE=Soul
TTITLE0=Luther Vandross - Never Too Much
TTITLE1=Billy Griffin - Hold Me Tighter In The Rain
TTITLE2=Marvin Gaye - Sexual Healing
TTITLE3=Mtume - Juicy Fruit
TTITLE4=Juicy - Sugar Free
TTITLE5=Terence Trent D'Arby - Wishing Well
TTITLE6=Haywoode - Roses
TTITLE7=The Pasadenas - Tribute (Right On)
TTITLE8=Deniece Williams - Free
TTITLE9=Heatwave - Always And Forever
TTITLE10=Harold Melvin and The Blue Notes - If You Don't Know Me By Now
TTITLE11=Billy Paul - Me And Mrs. Jones
TTITLE12=Ann Peebles - I'm Gonna' Tear Your Playhouse Down
TTITLE13=James and Bobby Purify - I'm Your Puppet
TTITLE14=The Friends Of Distinction - Grazing In The Grass
TTITLE15=Lee Dorsey - Working In The Coal Mine
TTITLE16=Erma Franklin - Piece Of My Heart
TTITLE17=B.T. Express - Do It ('til Your Satisfied)
TTITLE18=MFSB - The Sound Of Philadelphia
TTITLE19=Billy Ocean - Red Light Spells Danger
EXTD=
EXTT0=
EXTT1=
EXTT2=
EXTT3=
EXTT4=
EXTT5=
EXTT6=
EXTT7=
EXTT8=
EXTT9=
EXTT10=
EXTT11=
EXTT12=
EXTT13=
EXTT14=
EXTT15=
EXTT16=
EXTT17=
EXTT18=
EXTT19=
PLAYORDER=
